<svg id="Layer_1" data-name="Layer 1" xmlns="http://www.w3.org/2000/svg" viewBox="0 0 328.3 52"><defs><style>.cls-1{fill:#fff;}.cls-2{fill:#73000a;}</style></defs><title>uofsc_primary_rgbREV_G</title><rect class="cls-1" width="51.95" height="51.95" transform="translate(51.95 0) rotate(90)"/><rect class="cls-2" x="1.97" y="1.97" width="48.02" height="48.02"/><path class="cls-1" d="M21.05,33.32,18,31.81c-1.2-.58-1.87-1.25-1.87-2.33s.94-2.09,2.69-2.09a3.72,3.72,0,0,1,2.83,1.27l.7,2.21H24V27.13a9.66,9.66,0,0,0-5-1.4c-4.44,1-6.24,2.79-6.24,5S14.14,34,16.1,35l3,1.44c1.44.68,2.14,1.54,2.14,2.72a2.47,2.47,0,0,1-2.72,2.52,4.34,4.34,0,0,1-3.22-1.61l-.81-2.18h-2l.52,3.89a9.15,9.15,0,0,0,5.14,1.63c4.4-1.08,6.61-2.79,6.61-5.52C24.68,35.84,23.74,34.62,21.05,33.32ZM26.34,8.55l-2.52.06L21,8.55l-.11,1,1.86.29v8.66c0,2.68-1.21,4.25-3.47,4.25s-3.49-1.57-3.49-4.2V9.85l1.61-.29-.11-1-3.56.06-3-.06-.11,1,1.72.29v8.71c0,3.51,1.77,5.88,6.77,5.88,4.39-1,5.59-3.05,5.59-6V9.85l1.74-.29Zm3.32,11.91L30.74,20a4.84,4.84,0,0,0,3.35-4.57,3.12,3.12,0,0,0-3.25-3.28l-1.08.5c-2.14,1-3.35,2.53-3.35,4.59A3.06,3.06,0,0,0,29.66,20.46Zm.51-7.2c1,.21,1.66,1,1.66,2.69,0,1.34-.45,2.93-1.52,3.45-1-.23-1.65-1-1.65-2.7C28.66,15.36,29.12,13.78,30.17,13.26Zm9.41-4.71-2,1.14A3.32,3.32,0,0,0,36.18,12l-.1.57h-.86l-.79.69-.08.34h1.57l-1.26,7.15a3.09,3.09,0,0,1-.6,1.44H32.21l-.34,1.83h1.19l1.8-1.19a4.08,4.08,0,0,0,2-2.5L38,13.64h1.77l.18-1H38.16l.26-1.5a2,2,0,0,1,.52-1.09H41l.29-1.55Zm-2,31.64c-.87.84-1.18,1.61-2.75,1.61-3.38,0-4.78-3.48-4.78-7.56,0-4.42,1.52-6.92,4.5-6.92,2,0,2.38.94,3,1.78l.77,2.35H40V27.34A8.7,8.7,0,0,0,35,25.73c-6,.92-9,3.56-9,9.23,0,5.52,3.59,8.45,8.25,8.45a18.72,18.72,0,0,0,5.57-1.73l.48-4.3H38.71Z"/><path class="cls-1" d="M70,36a7.79,7.79,0,0,0,5.76,2.72c3.26,0,5.26-2,5.26-4.93,0-2.47-1.58-4-4.09-5.18l-5-2.34c-3.22-1.46-5.6-3.46-5.6-7.14,0-4.26,3.68-7.14,10.36-8.56A14.89,14.89,0,0,1,84.65,13v6H82.18L81,15.25A6.21,6.21,0,0,0,76,13.12c-3.17,0-5,1.71-5,4.17,0,2.09,1.46,3.43,3.64,4.43L79.76,24c3.88,1.83,6.22,3.92,6.18,7.85,0,4.3-3.17,7.72-10.94,9.48a14.33,14.33,0,0,1-8.77-2.84l-.92-6.14h3.22Z"/><path class="cls-1" d="M108.1,29.66c0,6.51-4.3,10.43-10.64,11.56-5.47,0-9.36-4.8-9.36-10.6C88.1,24,92.4,20.18,98.75,19,104.22,19,108.1,23.81,108.1,29.66ZM98.63,39C101.42,39,103,35.55,103,31c0-5.8-2.34-9.72-5.43-9.72-2.84,0-4.34,3.46-4.34,8.05C93.2,34.71,95.45,39,98.63,39Z"/><path class="cls-1" d="M128.67,35.08a6,6,0,0,0,.54,3.05h1.92l.17,1.67-6,1.13-1.21-3.51-6,3.8c-5.3,0-6.56-1.75-6.56-6.64V22.44l-2.67.21-.21-1.84,5.22-1.13,2.51-.17v15c0,2,.83,2.92,2.75,2.92,1.13,0,2.55-.84,3.93-1.75l.79-.55V22.44l-2.34.21-.2-1.84,4.84-1.13,2.51-.17Z"/><path class="cls-1" d="M152.85,38.51l2.09.46-.21,1.67-4.17-.13-5,.13L145.38,39l2.67-.46V14.29l-2.71.09-.21-1.67,5.43-1.26,2.29-.16V23l6.23-4c5.13,0,6.3,1.8,6.3,7V38.51l2.88.46-.21,1.67-5-.13-4.21.13L158.66,39l1.88-.46V25.61c0-2-.92-2.84-2.47-2.84-1.21,0-2.67.88-4.09,1.76l-1.13.71Z"/><path class="cls-1" d="M203.7,31.53l-1,6.68a36.9,36.9,0,0,1-9.9,3.14,14.44,14.44,0,0,1-14.09-14.87c0-9.55,6.86-14.67,15.13-15.87a16.5,16.5,0,0,1,9.28,3.05V20h-2.59l-1.34-4a7.13,7.13,0,0,0-6.1-3c-5.72,0-8.61,4.39-8.61,12.32,0,6.93,2.72,13.49,9.4,13.49,2.59,0,3.81-1.38,5.1-2.55l2.17-4.76Z"/><path class="cls-1" d="M214.17,19c5.55,0,7.14,1.42,7.14,6.56V35.83A5.27,5.27,0,0,0,222,39H224l.21,1.68-6.18.58-1.34-3.59-4.88,3.59c-3.72,0-6.35-2.09-6.35-5.47a5.89,5.89,0,0,1,1.63-4l9.35-3V25.28c0-2.51-.41-3.68-2.29-3.68a8,8,0,0,0-3,.71L210.45,26h-4.3V22.44Zm2.29,11.44-5.3,2.17a3.7,3.7,0,0,0-.88,2.54c0,2.09,1.17,2.84,2.26,2.84A4.4,4.4,0,0,0,215,37l1.46-1Z"/><path class="cls-1" d="M232.55,25.49l4.59-6.27h4.17l-1.16,4.89h-3A9.9,9.9,0,0,0,233.51,27l-.71.83V38.42l4.43.42-.21,1.8-6.52-.13-4.92.13L225.37,39l2.71-.46V22.44l-2.71.21-.21-1.72,5.22-1.25,1.92-.17Z"/><path class="cls-1" d="M260.76,29.66c0,6.51-4.3,10.43-10.65,11.56-5.47,0-9.35-4.8-9.35-10.6,0-6.6,4.3-10.44,10.65-11.61C256.88,19,260.76,23.81,260.76,29.66ZM251.28,39c2.8,0,4.35-3.46,4.35-8.06,0-5.8-2.34-9.72-5.43-9.72-2.84,0-4.35,3.46-4.35,8.05C245.85,34.71,248.11,39,251.28,39Z"/><path class="cls-1" d="M266.16,40.51l-5,.13L261,39l2.68-.46V14.29l-2.72.09-.21-1.71,5.43-1.26,2.3-.16V38.51l2.88.46-.21,1.67Z"/><path class="cls-1" d="M278.4,40.51l-5,.13L273.22,39l2.71-.46V22.4l-2.71.16L273,20.89l5.43-1.21,2.3-.17v19l2.84.46-.21,1.67ZM276.14,11.7l3.43-.25,1.25.25.25,2.54-.5,2.17-3.38.26-1.26-.26-.25-2.54Z"/><path class="cls-1" d="M290.75,40.51l-5,.13L285.57,39l2.71-.46V22.44l-2.75.21-.21-1.72,5.43-1.25,2.13-.12L293,23l6.27-4c5.13,0,6.34,1.63,6.34,6.64V38.51l2.89.46-.21,1.67-5-.13-4.3.13L298.81,39l1.92-.46V25.61c0-2-.88-2.84-2.51-2.84-1.38,0-2.71.88-4.05,1.76l-1.08.75V38.51l2,.46-.21,1.67Z"/><path class="cls-1" d="M317.94,19c5.55,0,7.14,1.42,7.14,6.56V35.83a5.27,5.27,0,0,0,.66,3.13h2.05l.21,1.68-6.18.58-1.34-3.59-4.88,3.59c-3.72,0-6.35-2.09-6.35-5.47a5.89,5.89,0,0,1,1.63-4l9.35-3V25.28c0-2.51-.41-3.68-2.29-3.68a8,8,0,0,0-3.05.71L314.22,26h-4.3V22.44Zm2.29,11.44-5.3,2.17a3.7,3.7,0,0,0-.88,2.54c0,2.09,1.17,2.84,2.26,2.84a4.4,4.4,0,0,0,2.46-1l1.46-1Z"/><path class="cls-1" d="M144,37.11a6,6,0,0,1-2.64.69c-1.59,0-2.17-1.22-2.17-2.55V21.56H144v-2h-4.85V14.38h-1.47l-3.21,2.88v2h-1.88l-1.55,1.59v.71h3.35V35.67c0,4,1.67,5.55,5.88,5.55l3.46-1.89Z"/><path class="cls-1" d="M41.6,41.64l.3,0V40.15h-.34l-.13.37h-.14V40h1.65v.54H42.8l-.13-.37h-.34v1.46l.29,0v.14h-1Zm1.49,0,.2,0V40.15l-.21,0V40h.71l.52,1.24v.23L44.89,40h.69v.13l-.21,0v1.46l.21,0,0,.14h-.8v-.14l.21,0V40.45l0-.31-.63,1.63h-.26l-.54-1.3-.08-.31v1.45l.21,0v.14h-.6Z"/></svg>